<?xml version="1.0" encoding="UTF-8" standalone="no"?>
<!DOCTYPE svg PUBLIC "-//W3C//DTD SVG 1.1//EN" "http://www.w3.org/Graphics/SVG/1.1/DTD/svg11.dtd">
<svg width="100%" height="100%" viewBox="0 0 1125 558" version="1.1" xmlns="http://www.w3.org/2000/svg" xmlns:xlink="http://www.w3.org/1999/xlink" xml:space="preserve" xmlns:serif="http://www.serif.com/" style="fill-rule:evenodd;clip-rule:evenodd;">
    <g id="Layer-1" serif:id="Layer 1" transform="matrix(4.16667,0,0,4.16667,0,0)">
        <g transform="matrix(1,0,0,1,139.242,9.3308)">
            <path d="M0,110.801C6.746,110.932 14.932,110.592 16.365,110.565C21.555,110.463 21.545,110.059 26.737,109.977C29.594,109.93 35.824,110.071 39.199,110.123C44.131,110.201 50.879,109.952 52.696,109.952C59.053,109.952 59.051,109.983 65.41,109.94C68.785,109.916 75.537,110.108 78.914,110.061C80.211,110.043 95.264,110.008 98.379,110.008C101.492,110.008 107.852,110.123 111.096,110.037C117.584,109.864 117.584,109.883 124.071,109.633C124.362,109.621 124.744,109.705 124.526,109.514C123.389,108.512 122.998,108.752 122.451,107.387C122.102,106.51 123.156,104.26 122.516,103.508C120.908,101.619 120.199,102.27 118.551,100.416C118.088,99.895 118.717,99.401 118.153,98.989C117.158,98.264 116.492,99.276 115.832,98.237C115.258,97.334 116.242,97.303 116.033,96.254C115.565,93.912 115.735,93.813 114.506,91.766C114.117,91.118 112.35,90.504 112.166,89.772C111.947,88.889 112.766,88.729 112.461,87.871C112.084,86.821 109.385,85.621 108.768,84.389C108.358,83.567 108.949,83.311 109.154,82.416C109.34,81.616 109.828,78.151 110.088,76.946C110.225,76.311 107.709,65.944 107.946,64.53C108.117,63.498 109.354,63.715 109.1,62.7C108.83,61.616 107.529,62.537 106.93,61.596C106.512,60.938 107.498,58.348 106.934,57.151C106.424,56.069 103.235,55.227 102.74,53.91C102.266,52.643 103.887,52.619 103.483,51.325C103.096,50.086 101.809,51.002 101.528,49.735C101.17,48.131 102.444,48.27 102.444,46.627C102.444,44.612 101.965,40.549 101.174,38.752C100.471,37.155 96.44,34.319 95.248,31.719C94.836,30.821 95.531,29.034 95.029,28.182C94.227,26.817 93.256,27.207 92.924,25.659C92.434,23.371 93.856,23.235 93.418,20.938C93.276,20.194 89.487,20.416 87.408,19.229C86.446,18.68 87.473,17.832 86.731,17.008C86.182,16.397 84.488,14.936 83.307,13.659C82.772,13.078 82.852,13.192 82.115,12.909C78.811,11.627 73.574,9.147 71.453,8.502C70.576,8.235 70.459,8.844 69.77,8.241C69.174,7.721 70.02,7.254 69.322,6.883C67.703,6.02 67.506,6.301 65.676,6.436C63.916,6.567 60.084,7.655 57.881,7.547C54.76,7.395 54.67,6.078 51.668,6.948C49.285,7.637 50.498,10.004 48.072,10.518C45.543,11.055 40.283,7.494 37.793,5.774C34.824,3.725 35.68,2.131 32.186,1.231C26.908,-0.131 26.742,1.389 21.293,1.455C15.842,1.52 15.838,1.164 10.387,1.201C6.494,1.229 -11.805,1.678 -16.605,1.709C-21.578,1.743 -21.578,1.407 -26.551,1.407C-31.527,1.407 -41.478,1.819 -46.455,1.819C-50.519,1.819 -58.65,1.483 -62.719,1.483C-66.785,1.483 -66.785,1.719 -70.853,1.69C-76.043,1.653 -76.047,1.912 -81.238,1.846C-86.43,1.782 -94.734,1.143 -97.847,1.174C-101.482,1.207 -108.75,1.489 -112.385,1.52C-116.406,1.555 -116.404,1.946 -120.428,1.946C-124.449,1.946 -128.023,1.047 -129.693,2.508C-130.734,3.418 -129.457,12.237 -129.431,15.741L-129.097,32.01C-129.133,38.086 -129.394,47.053 -129.258,49.948C-129.111,53.118 -129.006,53.112 -128.834,56.28C-128.834,56.313 -128.984,56.153 -128.957,56.133C-125.217,53.428 -109.586,39.467 -105.861,36.744C-102.137,34.022 -90.461,23.284 -84.096,23.284C-78.367,23.284 -54.107,42.606 -63.437,45.307C-64.754,45.688 -70.812,47.385 -66.865,26.059C-66.859,26.032 -51.943,26.459 -51.943,26.459C-51.584,26.76 -52.515,44.678 -51.801,45.19C-47.402,48.336 -41.32,53.426 -38.346,56.668C-38.305,56.711 -38.299,56.905 -38.297,56.965C-38.033,64.291 -38.301,61.748 -38.125,69.076C-38.096,70.297 -37.994,79.258 -37.994,86.588C-37.994,89.235 -38.137,96.463 -38.037,101.045C-37.937,105.627 -39.172,108.477 -37.697,109.735C-36.478,110.774 -34.049,109.998 -30.181,110.059C-26.312,110.121 -8.418,110.465 -3.933,110.465C-3.933,110.465 -0.129,110.799 0,110.801" style="fill:white;fill-rule:nonzero;"/>
        </g>
        <g transform="matrix(1,0,0,1,139.242,9.3308)">
            <path d="M0,110.801C6.746,110.932 14.932,110.592 16.365,110.565C21.555,110.463 21.545,110.059 26.737,109.977C29.594,109.93 35.824,110.071 39.199,110.123C44.131,110.201 50.879,109.952 52.696,109.952C59.053,109.952 59.051,109.983 65.41,109.94C68.785,109.916 75.537,110.108 78.914,110.061C80.211,110.043 95.264,110.008 98.379,110.008C101.492,110.008 107.852,110.123 111.096,110.037C117.584,109.864 117.584,109.883 124.071,109.633C124.362,109.621 124.744,109.705 124.526,109.514C123.389,108.512 122.998,108.752 122.451,107.387C122.102,106.51 123.156,104.26 122.516,103.508C120.908,101.619 120.199,102.27 118.551,100.416C118.088,99.895 118.717,99.401 118.153,98.989C117.158,98.264 116.492,99.276 115.832,98.237C115.258,97.334 116.242,97.303 116.033,96.254C115.565,93.912 115.735,93.813 114.506,91.766C114.117,91.118 112.35,90.504 112.166,89.772C111.947,88.889 112.766,88.729 112.461,87.871C112.084,86.821 109.385,85.621 108.768,84.389C108.358,83.567 108.949,83.311 109.154,82.416C109.34,81.616 109.828,78.151 110.088,76.946C110.225,76.311 107.709,65.944 107.946,64.53C108.117,63.498 109.354,63.715 109.1,62.7C108.83,61.616 107.529,62.537 106.93,61.596C106.512,60.938 107.498,58.348 106.934,57.151C106.424,56.069 103.235,55.227 102.74,53.91C102.266,52.643 103.887,52.619 103.483,51.325C103.096,50.086 101.809,51.002 101.528,49.735C101.17,48.131 102.444,48.27 102.444,46.627C102.444,44.612 101.965,40.549 101.174,38.752C100.471,37.155 96.44,34.319 95.248,31.719C94.836,30.821 95.531,29.034 95.029,28.182C94.227,26.817 93.256,27.207 92.924,25.659C92.434,23.371 93.856,23.235 93.418,20.938C93.276,20.194 89.487,20.416 87.408,19.229C86.446,18.68 87.473,17.832 86.731,17.008C86.182,16.397 84.488,14.936 83.307,13.659C82.772,13.078 82.852,13.192 82.115,12.909C78.811,11.627 73.574,9.147 71.453,8.502C70.576,8.235 70.459,8.844 69.77,8.241C69.174,7.721 70.02,7.254 69.322,6.883C67.703,6.02 67.506,6.301 65.676,6.436C63.916,6.567 60.084,7.655 57.881,7.547C54.76,7.395 54.67,6.078 51.668,6.948C49.285,7.637 50.498,10.004 48.072,10.518C45.543,11.055 40.283,7.494 37.793,5.774C34.824,3.725 35.68,2.131 32.186,1.231C26.908,-0.131 26.742,1.389 21.293,1.455C15.842,1.52 15.838,1.164 10.387,1.201C6.494,1.229 -11.805,1.678 -16.605,1.709C-21.578,1.743 -21.578,1.407 -26.551,1.407C-31.527,1.407 -41.478,1.819 -46.455,1.819C-50.519,1.819 -58.65,1.483 -62.719,1.483C-66.785,1.483 -66.785,1.719 -70.853,1.69C-76.043,1.653 -76.047,1.912 -81.238,1.846C-86.43,1.782 -94.734,1.143 -97.847,1.174C-101.482,1.207 -108.75,1.489 -112.385,1.52C-116.406,1.555 -116.404,1.946 -120.428,1.946C-124.449,1.946 -128.023,1.047 -129.693,2.508C-130.734,3.418 -129.457,12.237 -129.431,15.741L-129.097,32.01C-129.133,38.086 -129.394,47.053 -129.258,49.948C-129.111,53.118 -129.006,53.112 -128.834,56.28C-128.834,56.313 -128.984,56.153 -128.957,56.133C-125.217,53.428 -109.586,39.467 -105.861,36.744C-102.137,34.022 -90.461,23.284 -84.096,23.284C-78.367,23.284 -54.107,42.606 -63.437,45.307C-64.754,45.688 -70.812,47.385 -66.865,26.059C-66.859,26.032 -51.943,26.459 -51.943,26.459C-51.584,26.76 -52.515,44.678 -51.801,45.19C-47.402,48.336 -41.32,53.426 -38.346,56.668C-38.305,56.711 -38.299,56.905 -38.297,56.965C-38.033,64.291 -38.301,61.748 -38.125,69.076C-38.096,70.297 -37.994,79.258 -37.994,86.588C-37.994,89.235 -38.137,96.463 -38.037,101.045C-37.937,105.627 -39.172,108.477 -37.697,109.735C-36.478,110.774 -34.049,109.998 -30.181,110.059C-26.312,110.121 -8.418,110.465 -3.933,110.465C-3.933,110.465 -0.129,110.799 0,110.801Z" style="fill:none;fill-rule:nonzero;stroke:rgb(35,31,32);stroke-width:3px;"/>
        </g>
        <g transform="matrix(1,0,0,1,12.1081,83.7309)">
            <path d="M0,-1.829C-0.017,-0.875 -0.021,0.035 -0.012,0.901C-0.004,1.768 0.004,2.63 0.013,3.488C0.021,4.346 0.021,5.213 0.013,6.088C0.004,6.963 -0.025,7.87 -0.076,8.805C0.563,8.857 1.131,8.754 1.627,8.493C2.123,8.233 2.539,7.856 2.875,7.362C3.212,6.868 3.464,6.296 3.632,5.646C3.8,4.996 3.876,4.307 3.859,3.579C3.842,2.817 3.746,2.071 3.569,1.343C3.393,0.615 3.162,-0.03 2.875,-0.594C2.589,-1.157 2.249,-1.603 1.854,-1.933C1.459,-2.262 1.034,-2.41 0.581,-2.375C0.345,-2.34 0.198,-2.297 0.139,-2.245C0.08,-2.193 0.034,-2.054 0,-1.829M1.589,-10.565C1.303,-10.738 1.055,-10.79 0.845,-10.721C0.635,-10.651 0.458,-10.521 0.315,-10.331C0.172,-10.14 0.059,-9.915 -0.025,-9.655C-0.109,-9.395 -0.168,-9.161 -0.202,-8.953C-0.235,-8.71 -0.252,-8.39 -0.252,-7.991C-0.252,-7.592 -0.248,-7.181 -0.239,-6.756C-0.231,-6.331 -0.214,-5.911 -0.189,-5.495C-0.164,-5.079 -0.143,-4.741 -0.126,-4.481C-0.126,-4.29 -0.076,-4.173 0.025,-4.13C0.126,-4.086 0.261,-4.056 0.429,-4.039C0.581,-4.004 0.752,-3.996 0.946,-4.013C1.139,-4.03 1.329,-4.134 1.514,-4.325C1.799,-4.62 2.052,-5.048 2.271,-5.612C2.489,-6.175 2.582,-6.908 2.548,-7.809C2.548,-8.034 2.526,-8.286 2.485,-8.563C2.442,-8.84 2.384,-9.109 2.308,-9.369C2.232,-9.629 2.136,-9.867 2.018,-10.084C1.9,-10.3 1.757,-10.461 1.589,-10.565M-1.135,10.677C-1.455,10.781 -1.715,10.759 -1.917,10.612C-2.119,10.465 -2.274,10.265 -2.383,10.014C-2.493,9.763 -2.569,9.486 -2.61,9.182C-2.653,8.879 -2.673,8.615 -2.673,8.389C-2.657,7.713 -2.648,6.963 -2.648,6.14L-2.648,3.54C-2.648,2.63 -2.657,1.686 -2.673,0.706C-2.69,-0.273 -2.708,-1.257 -2.724,-2.245C-2.758,-3.701 -2.762,-5.048 -2.736,-6.288C-2.711,-7.527 -2.632,-8.537 -2.497,-9.317C-2.346,-10.114 -2.03,-10.773 -1.551,-11.293C-1.072,-11.813 -0.504,-12.168 0.151,-12.359C0.942,-12.601 1.757,-12.61 2.598,-12.385C3.439,-12.16 4.125,-11.691 4.654,-10.981C5.184,-10.27 5.482,-9.473 5.549,-8.589C5.6,-7.861 5.566,-7.228 5.449,-6.691C5.331,-6.153 5.179,-5.699 4.995,-5.326C4.809,-4.953 4.607,-4.65 4.389,-4.416C4.17,-4.182 3.985,-3.987 3.834,-3.831C4.019,-3.692 4.296,-3.445 4.667,-3.09C5.036,-2.734 5.411,-2.275 5.789,-1.712C6.167,-1.148 6.495,-0.477 6.773,0.303C7.05,1.083 7.189,1.967 7.189,2.955C7.189,4.637 6.966,5.988 6.521,7.011C6.075,8.034 5.499,8.805 4.792,9.325C4.086,9.845 3.3,10.153 2.434,10.248C1.568,10.343 0.723,10.313 -0.101,10.157C-0.235,10.244 -0.391,10.336 -0.567,10.43C-0.744,10.526 -0.933,10.608 -1.135,10.677" style="fill:rgb(43,126,152);fill-rule:nonzero;"/>
        </g>
        <g transform="matrix(1,0,0,1,24.2659,88.0552)">
            <path d="M0,-7.479C0.437,-7.496 0.824,-7.648 1.161,-7.934C1.497,-8.22 1.782,-8.584 2.018,-9.026C2.253,-9.468 2.43,-9.958 2.548,-10.495C2.665,-11.032 2.72,-11.561 2.712,-12.081C2.703,-12.601 2.632,-13.086 2.498,-13.537C2.363,-13.988 2.152,-14.343 1.867,-14.603C1.581,-14.846 1.198,-15.071 0.719,-15.279C0.24,-15.487 -0.244,-15.608 -0.731,-15.643C-0.647,-15.521 -0.576,-15.417 -0.517,-15.331C-0.458,-15.244 -0.42,-15.105 -0.403,-14.915C-0.403,-14.898 -0.395,-14.724 -0.378,-14.395C-0.362,-14.066 -0.34,-13.654 -0.315,-13.16C-0.29,-12.666 -0.261,-12.12 -0.227,-11.522C-0.193,-10.924 -0.164,-10.352 -0.139,-9.806C-0.113,-9.26 -0.088,-8.775 -0.063,-8.35C-0.038,-7.925 -0.017,-7.635 0,-7.479M0.126,-4.489C0.092,-4.454 0.072,-4.307 0.063,-4.047C0.055,-3.787 0.055,-3.466 0.063,-3.085C0.072,-2.704 0.084,-2.292 0.101,-1.85C0.118,-1.408 0.135,-0.988 0.151,-0.589C0.168,-0.19 0.181,0.165 0.189,0.477C0.198,0.789 0.202,0.988 0.202,1.075C0.185,1.803 0.193,2.644 0.227,3.596C0.261,4.55 0.286,5.478 0.303,6.378C0.303,6.691 0.319,7.029 0.354,7.393C0.387,7.756 0.382,8.108 0.341,8.446C0.298,8.784 0.202,9.083 0.051,9.343C-0.101,9.603 -0.362,9.776 -0.731,9.863C-1.219,9.967 -1.598,9.911 -1.866,9.694C-2.136,9.477 -2.342,9.182 -2.484,8.81C-2.627,8.437 -2.724,8.034 -2.774,7.601C-2.825,7.167 -2.859,6.794 -2.875,6.483C-2.926,5.772 -2.968,4.958 -3.001,4.039C-3.035,3.12 -3.069,2.184 -3.102,1.231C-3.136,0.278 -3.157,-0.667 -3.166,-1.603C-3.174,-2.539 -3.187,-3.38 -3.203,-4.125C-3.22,-4.87 -3.229,-5.486 -3.229,-5.971L-3.229,-6.829C-3.245,-7.626 -3.258,-8.406 -3.266,-9.169C-3.275,-9.932 -3.283,-10.642 -3.292,-11.301C-3.3,-11.959 -3.304,-12.558 -3.304,-13.095L-3.304,-14.876C-3.304,-14.971 -3.3,-15.054 -3.292,-15.123C-3.283,-15.192 -3.266,-15.262 -3.241,-15.331C-3.216,-15.4 -3.162,-15.504 -3.077,-15.643C-3.296,-15.955 -3.414,-16.224 -3.43,-16.449C-3.447,-16.674 -3.393,-16.856 -3.266,-16.995C-3.14,-17.134 -2.947,-17.233 -2.686,-17.294C-2.426,-17.354 -2.119,-17.394 -1.766,-17.411C-1.076,-17.446 -0.345,-17.394 0.429,-17.255C1.202,-17.116 1.921,-16.874 2.585,-16.527C3.25,-16.18 3.826,-15.725 4.313,-15.162C4.801,-14.599 5.104,-13.91 5.222,-13.095C5.356,-12.142 5.322,-11.275 5.121,-10.495C4.919,-9.715 4.612,-9.035 4.2,-8.454C3.788,-7.873 3.313,-7.384 2.775,-6.985C2.236,-6.586 1.698,-6.283 1.161,-6.075C1.934,-4.394 2.729,-2.725 3.544,-1.07C4.359,0.585 5.163,2.254 5.953,3.934C6.054,4.23 6.18,4.563 6.332,4.936C6.483,5.309 6.609,5.681 6.709,6.054C6.811,6.426 6.865,6.778 6.874,7.107C6.882,7.436 6.793,7.687 6.609,7.861C6.39,8.069 6.171,8.164 5.953,8.147C5.734,8.129 5.528,8.046 5.335,7.9C5.142,7.752 4.969,7.571 4.818,7.354C4.667,7.137 4.541,6.942 4.439,6.769C4.053,6.058 3.666,5.169 3.279,4.104C2.892,3.038 2.51,1.955 2.132,0.854C1.753,-0.247 1.392,-1.274 1.047,-2.227C0.702,-3.18 0.387,-3.9 0.101,-4.385L0.126,-4.489Z" style="fill:rgb(43,126,152);fill-rule:nonzero;"/>
        </g>
        <g transform="matrix(1,0,0,1,36.0705,84.2941)">
            <path d="M0,-1.066C0,-0.182 0.004,0.746 0.013,1.716C0.021,2.687 0.042,3.636 0.076,4.563C0.109,5.491 0.151,6.357 0.202,7.163C0.252,7.969 0.328,8.641 0.429,9.178C0.445,9.265 0.458,9.343 0.466,9.412C0.475,9.481 0.479,9.551 0.479,9.62C0.479,9.967 0.399,10.226 0.239,10.4C0.08,10.573 -0.117,10.678 -0.35,10.712C-0.417,10.729 -0.534,10.738 -0.701,10.738C-1.118,10.738 -1.518,10.626 -1.901,10.4C-2.285,10.175 -2.535,9.846 -2.651,9.412C-2.718,9.186 -2.768,8.719 -2.801,8.008C-2.834,7.297 -2.864,6.478 -2.889,5.551C-2.914,4.624 -2.931,3.64 -2.939,2.6C-2.947,1.56 -2.951,0.589 -2.951,-0.312C-2.951,-1.127 -2.947,-1.837 -2.938,-2.444C-2.93,-3.05 -2.926,-3.475 -2.926,-3.718C-2.926,-5.659 -2.901,-7.644 -2.851,-9.672L-2.851,-10.426C-2.851,-10.773 -2.805,-11.089 -2.713,-11.375C-2.622,-11.661 -2.384,-11.804 -2,-11.804C-1.7,-11.804 -1.342,-11.709 -0.925,-11.518C-0.642,-11.397 -0.437,-11.202 -0.312,-10.933C-0.187,-10.664 -0.083,-10.322 0,-9.906C0.05,-9.594 0.076,-9.091 0.076,-8.398C0.076,-7.739 0.063,-6.989 0.038,-6.149C0.013,-5.308 0,-4.515 0,-3.77L0,-1.066Z" style="fill:rgb(43,126,152);fill-rule:nonzero;"/>
        </g>
        <g transform="matrix(1,0,0,1,38.7185,90.5521)">
            <path d="M0,-13.824C0,-14.188 -0.025,-14.543 -0.076,-14.89C-0.126,-15.237 -0.139,-15.544 -0.114,-15.813C-0.088,-16.081 0,-16.307 0.151,-16.489C0.303,-16.671 0.58,-16.771 0.984,-16.788C1.219,-16.805 1.463,-16.723 1.715,-16.541C1.967,-16.359 2.228,-16.12 2.497,-15.826C2.631,-15.687 2.804,-15.458 3.014,-15.137C3.224,-14.816 3.456,-14.456 3.708,-14.058C3.96,-13.659 4.221,-13.239 4.49,-12.797C4.759,-12.355 5.011,-11.939 5.247,-11.549C5.482,-11.159 5.692,-10.817 5.877,-10.522C6.062,-10.227 6.196,-10.028 6.281,-9.924C6.314,-10.392 6.318,-10.895 6.293,-11.432C6.268,-11.969 6.234,-12.524 6.192,-13.096C6.15,-13.668 6.108,-14.244 6.066,-14.825C6.024,-15.406 6.011,-15.965 6.028,-16.502C6.028,-16.693 6.032,-16.87 6.041,-17.035C6.049,-17.199 6.087,-17.343 6.154,-17.464C6.222,-17.585 6.322,-17.689 6.457,-17.776C6.592,-17.863 6.776,-17.932 7.012,-17.984C7.214,-18.018 7.416,-17.98 7.618,-17.867C7.819,-17.754 8.088,-17.568 8.425,-17.308C8.593,-17.117 8.744,-16.788 8.879,-16.32C9.013,-15.852 9.126,-15.306 9.219,-14.682C9.312,-14.058 9.387,-13.386 9.446,-12.667C9.505,-11.948 9.551,-11.25 9.585,-10.574C9.619,-9.898 9.644,-9.278 9.661,-8.715C9.677,-8.152 9.694,-7.714 9.711,-7.402L9.988,1.204C10.005,1.672 10.014,2.101 10.014,2.491C10.014,2.881 9.967,3.206 9.875,3.466C9.782,3.726 9.631,3.917 9.421,4.038C9.21,4.16 8.904,4.194 8.5,4.142C7.76,4.038 7.256,3.808 6.987,3.453C6.718,3.098 6.6,2.512 6.634,1.698L6.255,-3.97C6.238,-4.126 6.23,-4.351 6.23,-4.646L6.23,-5.556C6.23,-5.868 6.222,-6.154 6.205,-6.414C6.188,-6.674 6.163,-6.839 6.129,-6.908C6.079,-7.012 5.969,-7.151 5.801,-7.324C5.633,-7.497 5.507,-7.645 5.423,-7.766C5.305,-7.905 5.196,-8.052 5.095,-8.208C4.994,-8.364 4.885,-8.52 4.767,-8.676C4.582,-8.953 4.418,-9.209 4.275,-9.443C4.132,-9.677 3.994,-9.911 3.859,-10.145C3.725,-10.379 3.594,-10.609 3.468,-10.834C3.342,-11.059 3.195,-11.293 3.027,-11.536C2.926,-11.692 2.783,-11.908 2.598,-12.186C2.413,-12.463 2.27,-12.671 2.169,-12.81C2.135,-12.758 2.123,-12.619 2.131,-12.394C2.14,-12.169 2.135,-11.9 2.119,-11.588C2.085,-10.929 2.068,-10.24 2.068,-9.521C2.068,-8.802 2.085,-8.06 2.119,-7.298C2.169,-6.189 2.22,-5.079 2.27,-3.97C2.32,-2.861 2.421,-1.76 2.573,-0.668C2.606,-0.408 2.661,-0.078 2.737,0.32C2.813,0.719 2.825,1.083 2.774,1.412C2.724,1.759 2.598,1.975 2.396,2.062C2.194,2.149 1.967,2.166 1.715,2.114C1.463,2.062 1.227,1.967 1.009,1.828C0.79,1.689 0.647,1.559 0.58,1.437C0.513,1.317 0.458,0.962 0.416,0.372C0.374,-0.217 0.34,-0.937 0.315,-1.786C0.29,-2.635 0.269,-3.554 0.252,-4.542C0.235,-5.53 0.218,-6.483 0.202,-7.402C0.185,-8.217 0.168,-8.958 0.151,-9.625C0.134,-10.292 0.109,-10.817 0.076,-11.198L0,-13.824Z" style="fill:rgb(43,126,152);fill-rule:nonzero;"/>
        </g>
        <g transform="matrix(1,0,0,1,58.7204,73.4699)">
            <path d="M0,17.246C0.42,17.125 0.77,16.926 1.047,16.648C1.324,16.371 1.551,16.041 1.728,15.66C1.904,15.279 2.039,14.867 2.131,14.425C2.224,13.983 2.287,13.528 2.321,13.06C2.371,12.454 2.392,11.864 2.384,11.292C2.375,10.72 2.362,10.209 2.346,9.758C2.077,9.706 1.82,9.711 1.577,9.771C1.333,9.832 1.084,9.888 0.833,9.94C0.58,9.992 0.311,10.018 0.025,10.018C-0.261,10.018 -0.58,9.94 -0.933,9.784C-1.236,9.645 -1.4,9.433 -1.425,9.147C-1.45,8.861 -1.295,8.614 -0.958,8.406C-0.773,8.302 -0.521,8.224 -0.202,8.172C0.118,8.12 0.454,8.081 0.807,8.055C1.16,8.029 1.501,8.012 1.829,8.003C2.157,7.995 2.43,7.973 2.648,7.938C3.153,7.869 3.565,7.821 3.884,7.795C4.204,7.769 4.46,7.808 4.654,7.912C4.847,8.016 4.985,8.198 5.07,8.458C5.154,8.718 5.212,9.091 5.247,9.576C5.263,9.906 5.284,10.235 5.31,10.564C5.335,10.893 5.364,11.18 5.398,11.422C5.532,12.358 5.562,13.246 5.486,14.087C5.411,14.928 5.192,15.691 4.83,16.375C4.469,17.06 3.947,17.654 3.267,18.156C2.585,18.659 1.715,19.049 0.656,19.326C-0.673,19.673 -1.883,19.608 -2.977,19.131C-4.07,18.654 -5.011,17.914 -5.801,16.908C-6.727,15.712 -7.378,14.347 -7.756,12.813C-8.135,11.279 -8.265,9.724 -8.147,8.146C-8.03,6.569 -7.672,5.044 -7.075,3.57C-6.479,2.097 -5.675,0.84 -4.667,-0.2C-4.212,-0.668 -3.645,-1.079 -2.964,-1.435C-2.283,-1.79 -1.564,-2.05 -0.807,-2.215C-0.05,-2.379 0.698,-2.427 1.437,-2.358C2.178,-2.288 2.833,-2.046 3.405,-1.63C3.674,-1.439 3.847,-1.231 3.922,-1.006C3.998,-0.78 3.893,-0.572 3.607,-0.382C3.489,-0.295 3.33,-0.269 3.128,-0.304C2.926,-0.338 2.695,-0.386 2.434,-0.447C2.173,-0.507 1.875,-0.555 1.539,-0.59C1.202,-0.624 0.845,-0.594 0.467,-0.499C0.088,-0.403 -0.32,-0.217 -0.757,0.06C-1.194,0.338 -1.648,0.745 -2.119,1.282C-2.875,2.132 -3.46,3.133 -3.872,4.285C-4.284,5.438 -4.565,6.647 -4.717,7.912C-4.868,9.229 -4.868,10.538 -4.717,11.838C-4.565,13.138 -4.204,14.317 -3.632,15.374C-3.178,16.206 -2.619,16.774 -1.955,17.077C-1.291,17.381 -0.656,17.437 -0.05,17.246L0,17.246Z" style="fill:rgb(43,126,152);fill-rule:nonzero;"/>
        </g>
        <g transform="matrix(1,0,0,1,84.5754,94.0831)">
            <path d="M0,-21.125C0,-21.003 0.004,-20.878 0.013,-20.748C0.021,-20.618 0.034,-20.483 0.051,-20.345C0.084,-19.496 0.114,-18.56 0.139,-17.537C0.164,-16.514 0.177,-15.448 0.177,-14.339C0.16,-13.021 0.118,-11.687 0.051,-10.335C-0.017,-8.983 -0.135,-7.7 -0.302,-6.487C-0.471,-5.273 -0.693,-4.168 -0.971,-3.172C-1.249,-2.176 -1.598,-1.365 -2.018,-0.741C-2.32,-0.308 -2.673,0.052 -3.077,0.338C-3.48,0.624 -3.943,0.806 -4.464,0.884C-4.986,0.962 -5.574,0.928 -6.23,0.78C-6.886,0.633 -7.617,0.334 -8.424,-0.117C-9.383,-0.637 -10.127,-1.296 -10.657,-2.094C-11.187,-2.89 -11.586,-3.761 -11.855,-4.706C-12.124,-5.65 -12.296,-6.647 -12.372,-7.696C-12.448,-8.745 -12.511,-9.78 -12.561,-10.803L-12.561,-11.843C-12.561,-12.363 -12.549,-12.978 -12.524,-13.689C-12.499,-14.399 -12.465,-15.162 -12.424,-15.977C-12.382,-16.792 -12.319,-17.572 -12.235,-18.317C-12.186,-18.837 -12.127,-19.327 -12.061,-19.786C-11.994,-20.245 -11.915,-20.644 -11.823,-20.982C-11.731,-21.32 -11.626,-21.588 -11.51,-21.788C-11.394,-21.987 -11.268,-22.087 -11.134,-22.087C-10.867,-22.087 -10.671,-22.074 -10.546,-22.048C-10.421,-22.022 -10.216,-21.914 -9.933,-21.723C-9.649,-21.532 -9.466,-21.303 -9.382,-21.034C-9.299,-20.765 -9.249,-20.475 -9.231,-20.163C-9.231,-19.487 -9.236,-18.772 -9.244,-18.018C-9.253,-17.264 -9.261,-16.501 -9.27,-15.73C-9.278,-14.958 -9.282,-14.183 -9.282,-13.403C-9.282,-12.623 -9.266,-11.869 -9.231,-11.141C-9.215,-10.794 -9.198,-10.361 -9.181,-9.841C-9.164,-9.321 -9.13,-8.762 -9.08,-8.164C-9.029,-7.566 -8.961,-6.951 -8.877,-6.318C-8.793,-5.685 -8.67,-5.079 -8.51,-4.498C-8.35,-3.917 -8.147,-3.38 -7.903,-2.886C-7.658,-2.393 -7.358,-1.997 -7.004,-1.703C-6.362,-1.148 -5.814,-0.919 -5.358,-1.014C-4.903,-1.109 -4.506,-1.417 -4.168,-1.938C-3.78,-2.561 -3.472,-3.332 -3.244,-4.251C-3.016,-5.169 -2.847,-6.17 -2.738,-7.254C-2.628,-8.337 -2.561,-9.473 -2.535,-10.66C-2.51,-11.847 -2.497,-13.039 -2.497,-14.235L-2.497,-17.511C-2.497,-18.568 -2.472,-19.556 -2.421,-20.475C-2.405,-20.891 -2.312,-21.199 -2.144,-21.398C-1.976,-21.597 -1.774,-21.71 -1.539,-21.736C-1.303,-21.762 -1.051,-21.719 -0.782,-21.606C-0.513,-21.493 -0.252,-21.333 0,-21.125" style="fill:rgb(43,126,152);fill-rule:nonzero;"/>
        </g>
        <g transform="matrix(1,0,0,1,91.613,86.7039)">
            <path d="M0,-5.114C0.454,-5.686 0.794,-6.353 1.021,-7.116C1.249,-7.878 1.371,-8.633 1.387,-9.378C1.404,-9.828 1.366,-10.266 1.274,-10.691C1.181,-11.115 1.025,-11.506 0.807,-11.861C0.588,-12.216 0.298,-12.515 -0.063,-12.758C-0.425,-13 -0.866,-13.174 -1.387,-13.278C-1.387,-13.208 -1.371,-12.988 -1.337,-12.615C-1.303,-12.242 -1.261,-11.783 -1.21,-11.237C-1.16,-10.691 -1.106,-10.089 -1.047,-9.43C-0.988,-8.771 -0.933,-8.13 -0.883,-7.506C-0.833,-6.882 -0.786,-6.305 -0.744,-5.777C-0.702,-5.248 -0.673,-4.836 -0.656,-4.542C-0.572,-4.611 -0.458,-4.702 -0.315,-4.815C-0.172,-4.927 -0.067,-5.027 0,-5.114M-2.774,9.264C-2.875,9.143 -2.964,8.887 -3.04,8.497C-3.115,8.107 -3.178,7.617 -3.229,7.029C-3.279,6.439 -3.326,5.776 -3.367,5.039C-3.41,4.303 -3.456,3.527 -3.506,2.712C-3.557,1.932 -3.603,1.126 -3.645,0.294C-3.687,-0.538 -3.729,-1.348 -3.771,-2.137C-3.813,-2.926 -3.851,-3.688 -3.884,-4.425C-3.918,-5.161 -3.952,-5.833 -3.985,-6.44C-4.002,-6.717 -4.027,-7.103 -4.061,-7.597C-4.095,-8.091 -4.133,-8.633 -4.174,-9.222C-4.217,-9.811 -4.25,-10.418 -4.275,-11.042C-4.3,-11.666 -4.3,-12.238 -4.275,-12.758C-4.25,-13.278 -4.204,-13.72 -4.137,-14.084C-4.069,-14.448 -3.952,-14.673 -3.783,-14.76C-3.498,-14.898 -3.17,-14.972 -2.8,-14.981C-2.43,-14.989 -2.052,-14.959 -1.665,-14.89C0.134,-14.595 1.442,-13.962 2.258,-12.992C3.073,-12.021 3.506,-10.825 3.557,-9.404C3.573,-8.52 3.439,-7.705 3.153,-6.96C2.867,-6.215 2.51,-5.538 2.081,-4.932C1.652,-4.325 1.194,-3.805 0.707,-3.372C0.218,-2.938 -0.202,-2.592 -0.555,-2.332L-0.555,-1.968C-0.555,-1.846 -0.538,-1.63 -0.504,-1.318C-0.504,-1.231 -0.488,-0.906 -0.454,-0.343C-0.42,0.22 -0.387,0.897 -0.353,1.685C-0.319,2.474 -0.286,3.315 -0.252,4.207C-0.219,5.1 -0.193,5.928 -0.176,6.69C-0.16,7.453 -0.147,8.094 -0.139,8.615C-0.13,9.134 -0.135,9.411 -0.151,9.447C-0.269,9.619 -0.45,9.737 -0.693,9.797C-0.937,9.858 -1.194,9.875 -1.463,9.849C-1.732,9.824 -1.989,9.762 -2.232,9.667C-2.476,9.572 -2.666,9.454 -2.8,9.316L-2.774,9.264Z" style="fill:rgb(43,126,152);fill-rule:nonzero;"/>
        </g>
        <g transform="matrix(1,0,0,1,9.6799,116.618)">
            <path d="M0,-13.424C0,-13.778 -0.024,-14.122 -0.073,-14.459C-0.123,-14.796 -0.135,-15.095 -0.11,-15.356C-0.085,-15.616 0,-15.835 0.147,-16.012C0.294,-16.189 0.563,-16.285 0.956,-16.303C1.184,-16.32 1.421,-16.239 1.666,-16.063C1.911,-15.886 2.164,-15.654 2.425,-15.368C2.556,-15.234 2.723,-15.011 2.927,-14.699C3.131,-14.388 3.356,-14.038 3.601,-13.652C3.846,-13.264 4.099,-12.857 4.36,-12.427C4.621,-11.998 4.866,-11.594 5.095,-11.215C5.324,-10.836 5.527,-10.504 5.708,-10.218C5.887,-9.931 6.018,-9.738 6.099,-9.637C6.132,-10.091 6.136,-10.579 6.111,-11.102C6.087,-11.623 6.054,-12.162 6.014,-12.717C5.973,-13.273 5.932,-13.832 5.891,-14.397C5.85,-14.96 5.838,-15.503 5.854,-16.025C5.854,-16.21 5.858,-16.382 5.867,-16.542C5.875,-16.702 5.911,-16.841 5.977,-16.959C6.042,-17.076 6.14,-17.178 6.271,-17.262C6.401,-17.346 6.581,-17.413 6.81,-17.464C7.005,-17.497 7.202,-17.46 7.397,-17.351C7.593,-17.24 7.854,-17.06 8.181,-16.808C8.344,-16.622 8.491,-16.303 8.622,-15.848C8.753,-15.394 8.863,-14.863 8.953,-14.257C9.042,-13.652 9.116,-12.999 9.173,-12.301C9.23,-11.602 9.275,-10.925 9.308,-10.268C9.341,-9.611 9.365,-9.01 9.381,-8.463C9.397,-7.916 9.414,-7.49 9.431,-7.188L9.7,1.17C9.716,1.624 9.725,2.041 9.725,2.419C9.725,2.798 9.679,3.113 9.59,3.366C9.5,3.619 9.353,3.804 9.149,3.922C8.944,4.04 8.646,4.073 8.255,4.022C7.536,3.922 7.046,3.699 6.785,3.353C6.524,3.009 6.409,2.44 6.442,1.649L6.075,-3.855C6.058,-4.007 6.05,-4.225 6.05,-4.512L6.05,-5.396C6.05,-5.698 6.042,-5.976 6.026,-6.229C6.009,-6.481 5.985,-6.641 5.952,-6.708C5.903,-6.809 5.797,-6.944 5.634,-7.112C5.47,-7.28 5.348,-7.423 5.267,-7.541C5.152,-7.676 5.046,-7.82 4.948,-7.971C4.85,-8.122 4.744,-8.274 4.629,-8.425C4.45,-8.695 4.291,-8.943 4.152,-9.17C4.013,-9.397 3.878,-9.624 3.748,-9.852C3.617,-10.079 3.491,-10.302 3.368,-10.521C3.246,-10.739 3.103,-10.967 2.939,-11.202C2.841,-11.354 2.703,-11.565 2.523,-11.833C2.343,-12.103 2.205,-12.305 2.106,-12.44C2.074,-12.389 2.062,-12.254 2.07,-12.035C2.078,-11.817 2.074,-11.556 2.058,-11.253C2.025,-10.613 2.009,-9.944 2.009,-9.245C2.009,-8.547 2.025,-7.827 2.058,-7.087C2.106,-6.01 2.156,-4.932 2.205,-3.855C2.253,-2.778 2.352,-1.709 2.499,-0.649C2.531,-0.396 2.584,-0.076 2.658,0.311C2.731,0.698 2.744,1.052 2.694,1.371C2.646,1.708 2.523,1.919 2.327,2.003C2.131,2.087 1.911,2.103 1.666,2.054C1.421,2.003 1.192,1.91 0.98,1.775C0.768,1.64 0.628,1.514 0.563,1.396C0.498,1.279 0.445,0.933 0.404,0.361C0.363,-0.21 0.331,-0.909 0.306,-1.735C0.282,-2.559 0.261,-3.451 0.245,-4.41C0.229,-5.37 0.212,-6.295 0.196,-7.188C0.18,-7.979 0.163,-8.698 0.147,-9.347C0.131,-9.994 0.106,-10.504 0.074,-10.874L0,-13.424Z" style="fill:rgb(43,126,152);fill-rule:nonzero;"/>
        </g>
        <g transform="matrix(1,0,0,1,21.0207,100.745)">
            <path d="M0,16.058C0.032,15.638 0.057,15.179 0.073,14.682C0.089,14.186 0.098,13.652 0.098,13.079C0.098,12.574 0.094,12.048 0.085,11.501C0.077,10.954 0.065,10.394 0.049,9.822C0.016,8.981 -0.008,8.134 -0.024,7.285C-0.041,6.435 -0.053,5.606 -0.062,4.797C-0.07,3.99 -0.078,3.228 -0.086,2.512C-0.094,1.797 -0.098,1.154 -0.098,0.58C-0.098,0.143 -0.086,-0.147 -0.062,-0.29C-0.037,-0.433 -0.004,-0.517 0.037,-0.543C0.077,-0.568 0.114,-0.585 0.147,-0.593C0.179,-0.601 0.212,-0.698 0.245,-0.883C0.261,-0.951 0.27,-1.044 0.27,-1.161C0.27,-1.246 0.273,-1.313 0.282,-1.363C0.29,-1.414 0.326,-1.481 0.392,-1.565C0.522,-1.716 0.857,-1.826 1.396,-1.893C1.935,-1.961 2.547,-1.995 3.233,-1.995C3.38,-1.995 3.527,-1.99 3.674,-1.982C3.821,-1.973 3.968,-1.969 4.115,-1.969C4.784,-1.935 5.401,-1.879 5.964,-1.802C6.528,-1.726 6.923,-1.636 7.152,-1.535C7.234,-1.5 7.328,-1.42 7.434,-1.292C7.54,-1.164 7.593,-1.023 7.593,-0.87C7.593,-0.836 7.577,-0.767 7.544,-0.665C7.414,-0.375 7.148,-0.191 6.748,-0.115C6.348,-0.038 5.903,0 5.413,0C5.184,0 4.964,-0.004 4.752,-0.012C4.54,-0.021 4.319,-0.025 4.09,-0.025L3.527,-0.025C3.298,-0.025 3.094,-0.016 2.915,0C2.735,0.017 2.588,0.059 2.474,0.126L2.474,0.429C2.474,0.664 2.482,0.98 2.499,1.374C2.515,1.769 2.539,2.194 2.572,2.647C2.621,3.068 2.658,3.488 2.682,3.908C2.707,4.328 2.731,4.705 2.755,5.042C2.78,5.378 2.808,5.765 2.841,6.202C2.923,6.302 3.119,6.353 3.429,6.353C3.641,6.353 3.87,6.34 4.115,6.315C4.36,6.289 4.613,6.278 4.875,6.278C5.021,6.278 5.164,6.286 5.303,6.302C5.441,6.32 5.576,6.345 5.707,6.378C5.968,6.462 6.136,6.567 6.209,6.693C6.283,6.82 6.319,6.95 6.319,7.084L6.319,7.185C6.319,7.37 6.278,7.542 6.197,7.702C6.115,7.861 5.911,7.983 5.584,8.067C5.372,8.118 5.14,8.163 4.887,8.205C4.633,8.247 4.384,8.282 4.14,8.307C3.895,8.331 3.662,8.349 3.441,8.357C3.221,8.366 3.037,8.37 2.89,8.37L2.89,10.197C2.89,10.525 2.898,10.857 2.915,11.193C2.915,11.512 2.918,11.824 2.927,12.125C2.935,12.428 2.939,12.74 2.939,13.058C2.939,13.378 2.935,13.689 2.927,13.991C2.918,14.293 2.915,14.605 2.915,14.923L2.915,15.478C2.915,15.663 2.935,15.789 2.976,15.857C3.017,15.924 3.127,15.966 3.307,15.983C3.682,15.983 4.033,15.97 4.36,15.945C4.687,15.919 5.013,15.907 5.34,15.907C5.666,15.907 5.98,15.928 6.283,15.97C6.585,16.012 6.899,16.092 7.226,16.209C7.667,16.378 7.887,16.588 7.887,16.841C7.887,16.959 7.838,17.077 7.74,17.195C7.479,17.497 7.104,17.691 6.613,17.775C6.124,17.86 5.634,17.902 5.144,17.902C4.948,17.902 4.756,17.898 4.568,17.889C4.38,17.88 4.213,17.876 4.066,17.876L3.552,17.876C3.241,17.876 2.996,17.885 2.817,17.902C2.637,17.918 2.482,17.935 2.352,17.952C2.221,17.969 2.098,17.99 1.984,18.015C1.87,18.04 1.73,18.053 1.567,18.053C1.306,18.053 1.126,18.019 1.029,17.952C0.931,17.885 0.8,17.8 0.637,17.7C0.326,17.514 0.126,17.321 0.037,17.119C-0.053,16.916 -0.098,16.732 -0.098,16.563C-0.098,16.429 -0.086,16.32 -0.062,16.235C-0.037,16.151 -0.017,16.092 0,16.058" style="fill:rgb(43,126,152);fill-rule:nonzero;"/>
        </g>
        <g transform="matrix(1,0,0,1,32.5329,109.994)">
            <path d="M0,-1.775C-0.017,-0.849 -0.021,0.035 -0.012,0.875C-0.004,1.718 0.004,2.555 0.012,3.388C0.02,4.221 0.02,5.063 0.012,5.912C0.004,6.763 -0.024,7.642 -0.074,8.551C0.547,8.602 1.098,8.501 1.58,8.248C2.062,7.996 2.465,7.63 2.792,7.15C3.119,6.67 3.364,6.115 3.527,5.484C3.69,4.853 3.764,4.183 3.748,3.477C3.731,2.736 3.637,2.012 3.466,1.305C3.294,0.598 3.07,-0.029 2.792,-0.576C2.515,-1.123 2.184,-1.556 1.8,-1.877C1.417,-2.196 1.004,-2.339 0.563,-2.305C0.334,-2.271 0.192,-2.23 0.135,-2.179C0.077,-2.129 0.033,-1.994 0,-1.775M1.543,-10.258C1.265,-10.426 1.024,-10.477 0.82,-10.41C0.616,-10.342 0.445,-10.216 0.306,-10.032C0.167,-9.846 0.057,-9.628 -0.024,-9.375C-0.106,-9.123 -0.164,-8.895 -0.196,-8.693C-0.229,-8.458 -0.245,-8.146 -0.245,-7.759C-0.245,-7.372 -0.241,-6.972 -0.233,-6.56C-0.225,-6.147 -0.208,-5.739 -0.184,-5.336C-0.159,-4.931 -0.139,-4.603 -0.123,-4.35C-0.123,-4.166 -0.074,-4.051 0.024,-4.009C0.123,-3.967 0.253,-3.938 0.417,-3.921C0.563,-3.887 0.73,-3.879 0.918,-3.896C1.106,-3.913 1.29,-4.013 1.47,-4.199C1.747,-4.485 1.992,-4.902 2.205,-5.449C2.417,-5.996 2.506,-6.707 2.474,-7.583C2.474,-7.801 2.453,-8.046 2.413,-8.315C2.372,-8.584 2.315,-8.844 2.241,-9.097C2.168,-9.35 2.074,-9.581 1.959,-9.792C1.845,-10.002 1.706,-10.158 1.543,-10.258M-1.102,10.37C-1.413,10.47 -1.666,10.45 -1.862,10.306C-2.058,10.163 -2.209,9.97 -2.315,9.725C-2.421,9.482 -2.495,9.212 -2.535,8.917C-2.576,8.623 -2.597,8.367 -2.597,8.148C-2.581,7.491 -2.572,6.763 -2.572,5.963L-2.572,3.439C-2.572,2.555 -2.581,1.638 -2.597,0.687C-2.613,-0.264 -2.629,-1.219 -2.646,-2.179C-2.678,-3.593 -2.682,-4.902 -2.658,-6.105C-2.633,-7.308 -2.556,-8.29 -2.425,-9.046C-2.278,-9.821 -1.972,-10.461 -1.506,-10.965C-1.041,-11.47 -0.49,-11.815 0.147,-12.001C0.914,-12.236 1.706,-12.245 2.523,-12.026C3.339,-11.807 4.005,-11.353 4.519,-10.663C5.034,-9.972 5.323,-9.198 5.389,-8.339C5.438,-7.632 5.405,-7.018 5.291,-6.497C5.176,-5.975 5.029,-5.533 4.85,-5.171C4.67,-4.809 4.474,-4.514 4.262,-4.288C4.05,-4.06 3.87,-3.871 3.723,-3.719C3.903,-3.585 4.172,-3.344 4.531,-3C4.891,-2.655 5.254,-2.209 5.622,-1.662C5.989,-1.115 6.307,-0.463 6.577,0.295C6.846,1.052 6.981,1.912 6.981,2.871C6.981,4.503 6.764,5.816 6.332,6.809C5.899,7.803 5.34,8.551 4.654,9.056C3.968,9.561 3.205,9.861 2.364,9.953C1.522,10.045 0.702,10.016 -0.098,9.865C-0.229,9.949 -0.38,10.038 -0.551,10.129C-0.723,10.222 -0.906,10.302 -1.102,10.37" style="fill:rgb(43,126,152);fill-rule:nonzero;"/>
        </g>
        <g transform="matrix(1,0,0,1,44.3396,114.194)">
            <path d="M0,-7.263C0.424,-7.28 0.8,-7.427 1.126,-7.704C1.453,-7.983 1.73,-8.336 1.959,-8.765C2.188,-9.195 2.359,-9.669 2.474,-10.192C2.588,-10.713 2.641,-11.227 2.633,-11.732C2.625,-12.237 2.555,-12.708 2.425,-13.146C2.294,-13.583 2.09,-13.928 1.812,-14.181C1.535,-14.416 1.164,-14.635 0.698,-14.837C0.232,-15.039 -0.237,-15.157 -0.71,-15.191C-0.629,-15.073 -0.56,-14.972 -0.502,-14.888C-0.445,-14.803 -0.409,-14.669 -0.392,-14.484C-0.392,-14.467 -0.384,-14.298 -0.368,-13.979C-0.352,-13.659 -0.331,-13.259 -0.306,-12.78C-0.282,-12.3 -0.253,-11.77 -0.221,-11.189C-0.188,-10.609 -0.159,-10.053 -0.135,-9.523C-0.11,-8.992 -0.086,-8.521 -0.062,-8.109C-0.037,-7.696 -0.017,-7.414 0,-7.263M0.123,-4.36C0.089,-4.325 0.069,-4.183 0.061,-3.93C0.053,-3.677 0.053,-3.366 0.061,-2.995C0.069,-2.625 0.082,-2.226 0.098,-1.796C0.114,-1.367 0.13,-0.959 0.147,-0.572C0.163,-0.185 0.175,0.16 0.184,0.464C0.191,0.766 0.196,0.96 0.196,1.044C0.179,1.751 0.187,2.567 0.22,3.493C0.253,4.419 0.277,5.32 0.294,6.195C0.294,6.498 0.31,6.826 0.343,7.179C0.375,7.533 0.371,7.874 0.331,8.202C0.29,8.53 0.196,8.821 0.049,9.073C-0.098,9.326 -0.352,9.494 -0.71,9.578C-1.184,9.679 -1.552,9.624 -1.813,9.414C-2.074,9.203 -2.274,8.917 -2.413,8.555C-2.552,8.193 -2.646,7.801 -2.694,7.382C-2.744,6.961 -2.776,6.598 -2.792,6.296C-2.841,5.606 -2.882,4.815 -2.915,3.923C-2.948,3.03 -2.98,2.122 -3.013,1.195C-3.046,0.27 -3.066,-0.648 -3.074,-1.557C-3.083,-2.465 -3.095,-3.282 -3.111,-4.006C-3.127,-4.729 -3.135,-5.327 -3.135,-5.798L-3.135,-6.631C-3.152,-7.406 -3.164,-8.163 -3.172,-8.904C-3.181,-9.645 -3.188,-10.334 -3.197,-10.974C-3.205,-11.614 -3.209,-12.195 -3.209,-12.716L-3.209,-14.446C-3.209,-14.538 -3.205,-14.618 -3.197,-14.686C-3.188,-14.753 -3.172,-14.821 -3.148,-14.888C-3.123,-14.955 -3.07,-15.056 -2.988,-15.191C-3.201,-15.493 -3.315,-15.754 -3.332,-15.974C-3.348,-16.192 -3.294,-16.368 -3.172,-16.504C-3.05,-16.638 -2.862,-16.735 -2.609,-16.794C-2.356,-16.853 -2.058,-16.891 -1.715,-16.908C-1.045,-16.942 -0.335,-16.891 0.416,-16.756C1.167,-16.621 1.865,-16.386 2.511,-16.049C3.155,-15.712 3.715,-15.271 4.188,-14.724C4.662,-14.177 4.956,-13.507 5.07,-12.716C5.201,-11.79 5.168,-10.95 4.972,-10.192C4.776,-9.434 4.478,-8.774 4.078,-8.209C3.678,-7.646 3.217,-7.17 2.694,-6.784C2.171,-6.396 1.649,-6.102 1.126,-5.9C1.877,-4.267 2.649,-2.646 3.441,-1.039C4.233,0.569 5.013,2.189 5.781,3.821C5.878,4.108 6.001,4.431 6.148,4.794C6.295,5.156 6.417,5.517 6.516,5.879C6.613,6.241 6.666,6.582 6.675,6.902C6.683,7.221 6.597,7.466 6.417,7.633C6.205,7.836 5.993,7.928 5.781,7.912C5.568,7.894 5.368,7.814 5.181,7.672C4.993,7.528 4.825,7.352 4.678,7.141C4.531,6.93 4.409,6.742 4.311,6.573C3.935,5.883 3.56,5.02 3.184,3.985C2.808,2.95 2.437,1.898 2.07,0.83C1.702,-0.24 1.351,-1.237 1.017,-2.162C0.682,-3.088 0.375,-3.786 0.098,-4.258L0.123,-4.36Z" style="fill:rgb(43,126,152);fill-rule:nonzero;"/>
        </g>
        <g transform="matrix(1,0,0,1,58.3498,109.788)">
            <path d="M0,-0.257C0.049,-0.576 0.082,-1.119 0.098,-1.885C0.114,-2.652 0.098,-3.48 0.049,-4.372C0.016,-4.944 -0.033,-5.526 -0.098,-6.114C-0.164,-6.703 -0.25,-7.234 -0.355,-7.705C-0.462,-8.176 -0.597,-8.559 -0.759,-8.854C-0.923,-9.149 -1.111,-9.296 -1.323,-9.296C-1.552,-9.278 -1.776,-9.111 -1.997,-8.791C-2.217,-8.471 -2.421,-8.054 -2.609,-7.541C-2.797,-7.028 -2.968,-6.443 -3.123,-5.786C-3.279,-5.13 -3.409,-4.456 -3.515,-3.767C-3.622,-3.076 -3.711,-2.399 -3.785,-1.734C-3.858,-1.069 -3.895,-0.476 -3.895,0.046C-3.862,0.046 -3.667,0.038 -3.307,0.021C-2.948,0.005 -2.547,-0.021 -2.106,-0.055C-1.666,-0.088 -1.241,-0.122 -0.833,-0.155C-0.425,-0.19 -0.147,-0.223 0,-0.257M-4.728,9.212C-5.087,9.347 -5.356,9.334 -5.536,9.174C-5.716,9.014 -5.838,8.787 -5.903,8.492C-5.969,8.197 -5.998,7.873 -5.989,7.519C-5.981,7.166 -5.977,6.863 -5.977,6.611C-5.977,6.51 -5.973,6.236 -5.964,5.79C-5.957,5.345 -5.949,4.831 -5.94,4.25C-5.932,3.67 -5.924,3.08 -5.916,2.482C-5.908,1.886 -5.896,1.385 -5.879,0.98C-5.863,0.257 -5.822,-0.526 -5.756,-1.367C-5.691,-2.209 -5.593,-3.064 -5.462,-3.931C-5.332,-4.797 -5.144,-5.652 -4.899,-6.493C-4.654,-7.335 -4.335,-8.11 -3.944,-8.816C-3.748,-9.169 -3.515,-9.51 -3.246,-9.839C-2.976,-10.167 -2.682,-10.461 -2.364,-10.722C-2.045,-10.984 -1.711,-11.194 -1.359,-11.354C-1.009,-11.513 -0.662,-11.593 -0.318,-11.593C0.187,-11.61 0.632,-11.45 1.017,-11.113C1.4,-10.777 1.73,-10.326 2.008,-9.763C2.286,-9.198 2.514,-8.547 2.694,-7.806C2.874,-7.066 3.013,-6.308 3.111,-5.533C3.225,-4.709 3.294,-3.771 3.319,-2.719C3.343,-1.666 3.355,-0.585 3.355,0.526C3.355,1.266 3.343,2.041 3.319,2.848C3.294,3.657 3.278,4.473 3.27,5.298C3.261,6.123 3.253,6.939 3.246,7.747C3.237,8.555 3.241,9.321 3.258,10.045C3.29,10.331 3.294,10.512 3.27,10.588C3.246,10.663 3.135,10.794 2.939,10.978C2.678,11.248 2.339,11.353 1.923,11.295C1.506,11.235 1.151,11.131 0.857,10.978C0.661,10.878 0.506,10.613 0.392,10.183C0.277,9.755 0.187,9.236 0.123,8.631C0.057,8.024 0.016,7.368 0,6.661C-0.017,5.954 -0.024,5.264 -0.024,4.591L-0.024,1.434C-0.694,1.469 -1.368,1.511 -2.045,1.561C-2.723,1.611 -3.373,1.645 -3.993,1.662C-4.009,1.898 -4.017,2.239 -4.017,2.684C-4.017,3.131 -4.021,3.623 -4.029,4.162C-4.038,4.701 -4.046,5.247 -4.054,5.803C-4.062,6.358 -4.075,6.863 -4.091,7.318C-4.107,7.621 -4.12,7.878 -4.127,8.088C-4.136,8.299 -4.156,8.479 -4.189,8.631C-4.222,8.782 -4.279,8.904 -4.36,8.997C-4.442,9.09 -4.564,9.161 -4.728,9.212" style="fill:rgb(43,126,152);fill-rule:nonzero;"/>
        </g>
        <g transform="matrix(1,0,0,1,67.927,97.9168)">
            <path d="M0,25.426C-0.065,25.443 -0.163,25.45 -0.294,25.45C-0.572,25.45 -0.792,25.383 -0.955,25.249C-1.119,25.114 -1.2,24.929 -1.2,24.694L-1.2,24.643C-1.184,24.491 -1.131,24.373 -1.041,24.289C-0.951,24.205 -0.833,24.134 -0.686,24.074C-0.539,24.016 -0.367,23.961 -0.171,23.91C0.024,23.861 0.221,23.793 0.417,23.709C0.531,23.658 0.653,23.573 0.784,23.456C0.915,23.338 1.037,23.203 1.151,23.052C1.266,22.901 1.359,22.737 1.433,22.56C1.506,22.383 1.551,22.211 1.568,22.042C1.584,21.907 1.596,21.778 1.604,21.651C1.613,21.525 1.617,21.395 1.617,21.26C1.617,20.57 1.522,19.951 1.335,19.404C1.147,18.857 0.956,18.356 0.759,17.902L0.662,17.699C0.417,17.144 0.135,16.635 -0.184,16.172C-0.502,15.709 -0.841,15.25 -1.2,14.796C-1.56,14.341 -1.927,13.874 -2.302,13.395C-2.678,12.915 -3.062,12.381 -3.454,11.791C-3.748,11.354 -4.009,10.869 -4.237,10.34C-4.466,9.81 -4.658,9.25 -4.813,8.66C-4.968,8.072 -5.091,7.47 -5.181,6.856C-5.271,6.241 -5.315,5.64 -5.315,5.05L-5.315,4.494C-5.315,4.31 -5.299,4.124 -5.266,3.939C-5.201,3.367 -5.074,2.828 -4.887,2.323C-4.699,1.819 -4.45,1.381 -4.14,1.01C-3.83,0.64 -3.45,0.35 -3,0.139C-2.551,-0.071 -2.033,-0.177 -1.445,-0.177C-1.053,-0.177 -0.621,-0.126 -0.147,-0.025C0.588,0.144 1.127,0.383 1.47,0.695C1.812,1.006 1.984,1.288 1.984,1.54C1.984,1.877 1.764,2.045 1.323,2.045C1.029,2.045 0.694,1.953 0.318,1.768C0.123,1.667 -0.065,1.595 -0.245,1.553C-0.425,1.511 -0.588,1.49 -0.735,1.49C-1.323,1.49 -1.76,1.772 -2.045,2.336C-2.331,2.9 -2.515,3.585 -2.596,4.394C-2.613,4.478 -2.621,4.571 -2.621,4.671L-2.621,4.974C-2.621,5.429 -2.58,5.883 -2.499,6.338C-2.417,6.792 -2.314,7.234 -2.192,7.663C-2.07,8.092 -1.931,8.489 -1.776,8.85C-1.621,9.212 -1.461,9.519 -1.298,9.772C-0.89,10.428 -0.457,11.055 0,11.653C0.457,12.25 0.91,12.839 1.359,13.42C1.809,14 2.229,14.59 2.621,15.188C3.013,15.785 3.356,16.404 3.65,17.043C4.058,17.936 4.262,18.946 4.262,20.072C4.262,20.797 4.164,21.495 3.968,22.168C3.789,22.775 3.523,23.322 3.172,23.81C2.821,24.298 2.368,24.676 1.812,24.946C1.551,25.098 1.266,25.232 0.956,25.35C0.645,25.467 0.318,25.552 -0.024,25.603L0,25.426Z" style="fill:rgb(43,126,152);fill-rule:nonzero;"/>
        </g>
        <g transform="matrix(1,0,0,1,80.1741,120.994)">
            <path d="M0,-22.824C0,-23.161 0.073,-23.392 0.22,-23.518C0.367,-23.645 0.539,-23.708 0.735,-23.708C0.931,-23.708 1.118,-23.666 1.298,-23.582C1.478,-23.498 1.608,-23.413 1.69,-23.329C1.788,-23.212 1.857,-23.064 1.898,-22.887C1.939,-22.711 1.959,-22.505 1.959,-22.269C1.959,-21.865 1.906,-21.402 1.8,-20.881C1.694,-20.358 1.551,-19.811 1.372,-19.239C1.323,-19.104 1.241,-18.889 1.127,-18.595C1.012,-18.301 0.874,-17.964 0.71,-17.586C0.547,-17.207 0.371,-16.799 0.184,-16.361C-0.004,-15.923 -0.188,-15.494 -0.368,-15.073C-0.384,-15.039 -0.4,-15.001 -0.417,-14.96C-0.433,-14.917 -0.449,-14.88 -0.465,-14.845C-0.743,-14.206 -0.98,-13.637 -1.176,-13.141C-1.372,-12.645 -1.478,-12.346 -1.494,-12.245C-1.037,-11.959 -0.523,-11.454 0.049,-10.73C0.621,-10.007 1.184,-9.223 1.739,-8.383C1.755,-8.348 1.837,-8.168 1.984,-7.84C2.131,-7.511 2.302,-7.107 2.499,-6.628C2.694,-6.147 2.906,-5.622 3.135,-5.05C3.364,-4.477 3.576,-3.929 3.772,-3.408C3.968,-2.887 4.131,-2.415 4.262,-1.994C4.393,-1.573 4.458,-1.279 4.458,-1.11C4.458,-0.842 4.368,-0.631 4.188,-0.479C4.009,-0.328 3.78,-0.252 3.503,-0.252C3.144,-0.252 2.776,-0.387 2.4,-0.656C2.253,-0.757 2.103,-0.971 1.947,-1.3C1.792,-1.628 1.633,-2.011 1.47,-2.449C1.306,-2.887 1.143,-3.358 0.98,-3.863C0.816,-4.368 0.661,-4.855 0.514,-5.327C0.367,-5.799 0.224,-6.227 0.086,-6.615C-0.053,-7.002 -0.18,-7.288 -0.294,-7.473C-0.572,-7.928 -0.845,-8.365 -1.115,-8.786C-1.384,-9.207 -1.641,-9.582 -1.886,-9.91C-2.131,-10.238 -2.355,-10.507 -2.56,-10.718C-2.764,-10.928 -2.939,-11.05 -3.086,-11.084C-3.152,-10.966 -3.193,-10.776 -3.209,-10.515C-3.225,-10.255 -3.233,-9.93 -3.233,-9.544C-3.233,-8.904 -3.213,-8.142 -3.172,-7.259C-3.131,-6.375 -3.095,-5.478 -3.062,-4.57C-3.046,-4.317 -3.013,-3.947 -2.964,-3.459C-2.915,-2.97 -2.891,-2.457 -2.891,-1.919C-2.891,-1.548 -2.911,-1.194 -2.952,-0.858C-2.993,-0.521 -3.062,-0.219 -3.16,0.051C-3.274,0.303 -3.413,0.505 -3.576,0.656C-3.74,0.808 -3.952,0.884 -4.213,0.884C-4.311,0.884 -4.393,0.875 -4.458,0.859C-4.883,0.775 -5.222,0.678 -5.475,0.569C-5.728,0.459 -5.919,0.312 -6.05,0.126C-6.263,-0.159 -6.373,-0.512 -6.381,-0.933C-6.389,-1.354 -6.401,-1.868 -6.417,-2.474C-6.451,-4.073 -6.512,-5.764 -6.601,-7.549C-6.691,-9.333 -6.777,-11.142 -6.858,-12.977C-6.892,-14.038 -6.924,-15.073 -6.957,-16.083C-6.989,-17.093 -7.005,-18.095 -7.005,-19.088C-7.005,-19.558 -7.001,-20.021 -6.993,-20.476C-6.985,-20.93 -6.973,-21.377 -6.957,-21.814L-6.957,-21.966C-6.957,-22.151 -6.948,-22.319 -6.932,-22.47C-6.916,-22.622 -6.879,-22.749 -6.822,-22.849C-6.765,-22.951 -6.671,-23.035 -6.54,-23.102C-6.41,-23.169 -6.222,-23.203 -5.977,-23.203C-5.879,-23.203 -5.76,-23.169 -5.622,-23.102C-5.483,-23.035 -5.344,-22.955 -5.205,-22.862C-5.066,-22.769 -4.944,-22.673 -4.838,-22.572C-4.731,-22.47 -4.654,-22.387 -4.605,-22.319C-4.491,-22.168 -4.389,-21.936 -4.299,-21.625C-4.209,-21.313 -4.127,-20.952 -4.054,-20.539C-3.98,-20.127 -3.916,-19.68 -3.858,-19.201C-3.801,-18.721 -3.756,-18.246 -3.723,-17.774C-3.674,-17.169 -3.638,-16.596 -3.613,-16.057C-3.588,-15.518 -3.568,-15.081 -3.552,-14.745C-3.552,-14.576 -3.544,-14.455 -3.527,-14.379C-3.511,-14.303 -3.491,-14.253 -3.466,-14.227C-3.441,-14.202 -3.417,-14.189 -3.393,-14.189C-3.368,-14.189 -3.34,-14.18 -3.307,-14.164C-3.176,-14.248 -3.111,-14.315 -3.111,-14.366C-3.111,-14.417 -3.054,-14.534 -2.939,-14.72C-2.45,-15.982 -1.968,-17.244 -1.494,-18.507C-1.021,-19.769 -0.547,-21.032 -0.074,-22.294C-0.041,-22.345 -0.021,-22.378 -0.012,-22.395C-0.004,-22.412 0,-22.446 0,-22.496L0,-22.824Z" style="fill:rgb(43,126,152);fill-rule:nonzero;"/>
        </g>
        <g transform="matrix(1,0,0,1,91.2702,109.788)">
            <path d="M0,-0.257C0.049,-0.576 0.082,-1.119 0.098,-1.885C0.114,-2.652 0.098,-3.48 0.049,-4.372C0.016,-4.944 -0.033,-5.526 -0.098,-6.114C-0.164,-6.703 -0.25,-7.234 -0.355,-7.705C-0.462,-8.176 -0.597,-8.559 -0.759,-8.854C-0.923,-9.149 -1.111,-9.296 -1.323,-9.296C-1.552,-9.278 -1.776,-9.111 -1.997,-8.791C-2.217,-8.471 -2.421,-8.054 -2.609,-7.541C-2.797,-7.028 -2.968,-6.443 -3.123,-5.786C-3.279,-5.13 -3.409,-4.456 -3.515,-3.767C-3.622,-3.076 -3.711,-2.399 -3.785,-1.734C-3.858,-1.069 -3.895,-0.476 -3.895,0.046C-3.862,0.046 -3.667,0.038 -3.307,0.021C-2.948,0.005 -2.547,-0.021 -2.106,-0.055C-1.666,-0.088 -1.241,-0.122 -0.833,-0.155C-0.425,-0.19 -0.147,-0.223 0,-0.257M-4.728,9.212C-5.087,9.347 -5.356,9.334 -5.536,9.174C-5.716,9.014 -5.838,8.787 -5.903,8.492C-5.969,8.197 -5.998,7.873 -5.989,7.519C-5.981,7.166 -5.977,6.863 -5.977,6.611C-5.977,6.51 -5.973,6.236 -5.964,5.79C-5.957,5.345 -5.949,4.831 -5.94,4.25C-5.932,3.67 -5.924,3.08 -5.916,2.482C-5.908,1.886 -5.896,1.385 -5.879,0.98C-5.863,0.257 -5.822,-0.526 -5.756,-1.367C-5.691,-2.209 -5.593,-3.064 -5.462,-3.931C-5.332,-4.797 -5.144,-5.652 -4.899,-6.493C-4.654,-7.335 -4.335,-8.11 -3.944,-8.816C-3.748,-9.169 -3.515,-9.51 -3.246,-9.839C-2.976,-10.167 -2.682,-10.461 -2.364,-10.722C-2.045,-10.984 -1.711,-11.194 -1.359,-11.354C-1.009,-11.513 -0.662,-11.593 -0.318,-11.593C0.187,-11.61 0.632,-11.45 1.017,-11.113C1.4,-10.777 1.73,-10.326 2.008,-9.763C2.286,-9.198 2.514,-8.547 2.694,-7.806C2.874,-7.066 3.013,-6.308 3.111,-5.533C3.225,-4.709 3.294,-3.771 3.319,-2.719C3.343,-1.666 3.355,-0.585 3.355,0.526C3.355,1.266 3.343,2.041 3.319,2.848C3.294,3.657 3.278,4.473 3.27,5.298C3.261,6.123 3.253,6.939 3.246,7.747C3.237,8.555 3.241,9.321 3.258,10.045C3.29,10.331 3.294,10.512 3.27,10.588C3.246,10.663 3.135,10.794 2.939,10.978C2.678,11.248 2.339,11.353 1.923,11.295C1.506,11.235 1.151,11.131 0.857,10.978C0.661,10.878 0.506,10.613 0.392,10.183C0.277,9.755 0.187,9.236 0.123,8.631C0.057,8.024 0.016,7.368 0,6.661C-0.017,5.954 -0.024,5.264 -0.024,4.591L-0.024,1.434C-0.694,1.469 -1.368,1.511 -2.045,1.561C-2.723,1.611 -3.373,1.645 -3.993,1.662C-4.009,1.898 -4.017,2.239 -4.017,2.684C-4.017,3.131 -4.021,3.623 -4.029,4.162C-4.038,4.701 -4.046,5.247 -4.054,5.803C-4.062,6.358 -4.075,6.863 -4.091,7.318C-4.107,7.621 -4.12,7.878 -4.127,8.088C-4.136,8.299 -4.156,8.479 -4.189,8.631C-4.222,8.782 -4.279,8.904 -4.36,8.997C-4.442,9.09 -4.564,9.161 -4.728,9.212" style="fill:rgb(43,126,152);fill-rule:nonzero;"/>
        </g>
    </g>
</svg>
